<svg width="54" height="72" viewBox="0 0 54 72" fill="none" xmlns="http://www.w3.org/2000/svg">
<path d="M46.8996 20.0221H52.4949C52.8941 20.0221 53.2769 20.1807 53.5592 20.4629C53.8414 20.7452 54 21.128 54 21.5272V63.5247C54 65.6648 53.1498 67.7173 51.6365 69.2306C50.1232 70.7439 48.0708 71.5941 45.9306 71.5941H40.3353C39.9361 71.5941 39.5533 71.4355 39.271 71.1532C38.9888 70.871 38.8302 70.4881 38.8302 70.0889V28.0915C38.8302 25.9513 39.6804 23.8989 41.1937 22.3856C42.707 20.8723 44.7594 20.0221 46.8996 20.0221Z" fill="#6461FF"/>
<path d="M1.50511 20.0452H7.10043C9.24056 20.0452 11.293 20.8953 12.8063 22.4086C14.3196 23.9219 15.1698 25.9744 15.1698 28.1145V70.112C15.1698 70.5112 15.0112 70.894 14.729 71.1763C14.4467 71.4586 14.0639 71.6171 13.6647 71.6171H8.06937C5.92924 71.6171 3.87676 70.767 2.36346 69.2537C0.850163 67.7404 0 65.6879 0 63.5478L0 21.5503C0 21.1511 0.158573 20.7683 0.440836 20.486C0.723098 20.2037 1.10593 20.0452 1.50511 20.0452V20.0452Z" fill="#6461FF"/>
<path d="M33.6753 52.518V69.8937C33.6753 70.3854 33.48 70.8568 33.1324 71.2045C32.7848 71.5521 32.3133 71.7474 31.8217 71.7474H21.7723C21.2804 71.7474 20.8085 71.5522 20.4603 71.2047C20.112 70.8572 19.9159 70.3857 19.9149 69.8937V52.4452C19.9148 52.0724 19.8027 51.7081 19.5932 51.3997L0.597408 23.5073C0.360117 23.1608 0.222319 22.7559 0.198985 22.3366C0.175651 21.9173 0.267674 21.4996 0.465056 21.1289C0.662438 20.7583 0.957631 20.4488 1.31856 20.2341C1.67949 20.0194 2.09236 19.9077 2.5123 19.9112H12.5617C12.8742 19.9114 13.1816 19.9905 13.4554 20.1412C13.7292 20.2918 13.9605 20.5091 14.1281 20.7729L25.131 38.1333C25.299 38.3958 25.5304 38.6118 25.8038 38.7614C26.0772 38.911 26.3839 38.9895 26.6955 38.9895C27.0072 38.9895 27.3138 38.911 27.5872 38.7614C27.8606 38.6118 28.092 38.3958 28.26 38.1333L39.4468 20.7614C39.6169 20.4985 39.8508 20.283 40.1268 20.135C40.4027 19.987 40.7116 19.9113 41.0247 19.915H51.48C51.8748 19.9149 52.2621 20.0226 52.6001 20.2265C52.9381 20.4304 53.2141 20.7227 53.3981 21.0719C53.5822 21.4211 53.6674 21.814 53.6446 22.2081C53.6217 22.6022 53.4917 22.9826 53.2685 23.3082L34.0008 51.4724C33.7895 51.7802 33.676 52.1446 33.6753 52.518Z" fill="#918EFF"/>
<path d="M33.1316 0H22.0789C18.9315 0 16.3801 2.55141 16.3801 5.69873V16.7515C16.3801 19.8988 18.9315 22.4502 22.0789 22.4502H33.1316C36.279 22.4502 38.8304 19.8988 38.8304 16.7515V5.69873C38.8304 2.55141 36.279 0 33.1316 0Z" fill="#6461FF"/>
</svg>
